<svg id="Laag_1" data-name="Laag 1" xmlns="http://www.w3.org/2000/svg" viewBox="0 0 50.81 50.87"><defs><style>.cls-1{fill:none;stroke:#fff;stroke-linecap:round;stroke-linejoin:round;stroke-width:4px;}</style></defs><path id="Path_1" data-name="Path 1" class="cls-1" d="M342.08,178.87a2.13,2.13,0,1,1-2.13-2.23h0A2.18,2.18,0,0,1,342.08,178.87Z" transform="translate(-320.93 -132.23)"/><path id="Path_2" data-name="Path 2" class="cls-1" d="M365.48,178.87a2.13,2.13,0,1,1-2.13-2.23h0A2.18,2.18,0,0,1,365.48,178.87Z" transform="translate(-320.93 -132.23)"/><path id="Path_3" data-name="Path 3" class="cls-1" d="M322.93,134.23h8.51l5.7,29.89a4.32,4.32,0,0,0,4.26,3.59h20.68a4.3,4.3,0,0,0,4.25-3.59l3.41-18.73H333.57" transform="translate(-320.93 -132.23)"/></svg>