<svg id="Laag_1" data-name="Laag 1" xmlns="http://www.w3.org/2000/svg" viewBox="0 0 35.61 34.63"><defs><style>.cls-1{fill:#fff;}</style></defs><path id="Icon_ionic-ios-search" data-name="Icon ionic-ios-search" class="cls-1" d="M324.8,168.88l-9.94-9.76a13.54,13.54,0,0,0-2.29-19.37A14.42,14.42,0,0,0,292.68,142,13.54,13.54,0,0,0,295,161.35a14.46,14.46,0,0,0,17.74-.12l9.87,9.7a1.56,1.56,0,0,0,2.16.06A1.47,1.47,0,0,0,324.8,168.88Zm-21.07-7.53a10.89,10.89,0,1,1,11.19-10.88,10.73,10.73,0,0,1-3.28,7.69A11.25,11.25,0,0,1,303.73,161.35Z" transform="translate(-289.61 -136.77)"/></svg>